<svg width="222" height="51" viewBox="0 0 222 51" fill="none" xmlns="http://www.w3.org/2000/svg">
<g clip-path="url(#clip0_7_48)">
<path d="M56.4545 39.5284C53.9205 39.5284 51.7386 38.9545 49.9091 37.8068C48.0909 36.6477 46.6932 35.0511 45.7159 33.017C44.7386 30.983 44.25 28.6534 44.25 26.0284C44.25 23.3693 44.75 21.0227 45.75 18.9886C46.75 16.9432 48.1591 15.3466 49.9773 14.1989C51.7955 13.0511 53.9375 12.4773 56.4034 12.4773C58.392 12.4773 60.1648 12.8466 61.7216 13.5852C63.2784 14.3125 64.5341 15.3352 65.4886 16.6534C66.4545 17.9716 67.0284 19.5114 67.2102 21.2727H62.25C61.9773 20.0455 61.3523 18.9886 60.375 18.1023C59.4091 17.2159 58.1136 16.7727 56.4886 16.7727C55.0682 16.7727 53.8239 17.1477 52.7557 17.8977C51.6989 18.6364 50.875 19.6932 50.2841 21.0682C49.6932 22.4318 49.3977 24.0455 49.3977 25.9091C49.3977 27.8182 49.6875 29.4659 50.267 30.8523C50.8466 32.2386 51.6648 33.3125 52.7216 34.0739C53.7898 34.8352 55.0455 35.2159 56.4886 35.2159C57.4545 35.2159 58.3295 35.0398 59.1136 34.6875C59.9091 34.3239 60.5739 33.8068 61.108 33.1364C61.6534 32.4659 62.0341 31.6591 62.25 30.7159H67.2102C67.0284 32.4091 66.4773 33.9205 65.5568 35.25C64.6364 36.5795 63.4034 37.625 61.858 38.3864C60.3239 39.1477 58.5227 39.5284 56.4545 39.5284ZM83.9446 39.5284C81.3651 39.5284 79.1435 38.9773 77.2798 37.875C75.4276 36.7614 73.9957 35.1989 72.9844 33.1875C71.9844 31.1648 71.4844 28.7955 71.4844 26.0795C71.4844 23.3977 71.9844 21.0341 72.9844 18.9886C73.9957 16.9432 75.4048 15.3466 77.2116 14.1989C79.0298 13.0511 81.1548 12.4773 83.5866 12.4773C85.0639 12.4773 86.4957 12.7216 87.8821 13.2102C89.2685 13.6989 90.5128 14.4659 91.6151 15.5114C92.7173 16.5568 93.5866 17.9148 94.223 19.5852C94.8594 21.2443 95.1776 23.2614 95.1776 25.6364V27.4432H74.3651V23.625H90.1832C90.1832 22.2841 89.9105 21.0966 89.3651 20.0625C88.8196 19.017 88.0526 18.1932 87.0639 17.5909C86.0866 16.9886 84.9389 16.6875 83.6207 16.6875C82.1889 16.6875 80.9389 17.0398 79.8707 17.7443C78.8139 18.4375 77.9957 19.3466 77.4162 20.4716C76.848 21.5852 76.5639 22.7955 76.5639 24.1023V27.0852C76.5639 28.8352 76.8707 30.3239 77.4844 31.5511C78.1094 32.7784 78.9787 33.7159 80.0923 34.3636C81.206 35 82.5071 35.3182 83.9957 35.3182C84.9616 35.3182 85.8423 35.1818 86.6378 34.9091C87.4332 34.625 88.1207 34.2045 88.7003 33.6477C89.2798 33.0909 89.723 32.4034 90.0298 31.5852L94.8537 32.4545C94.4673 33.875 93.7741 35.1193 92.7741 36.1875C91.7855 37.2443 90.5412 38.0682 89.0412 38.6591C87.5526 39.2386 85.8537 39.5284 83.9446 39.5284ZM105.929 4.09091V39H100.832V4.09091H105.929ZM117.882 4.09091V39H112.786V4.09091H117.882ZM124.739 48.8182V12.8182H129.716V17.0625H130.142C130.438 16.517 130.864 15.8864 131.42 15.1705C131.977 14.4545 132.75 13.8295 133.739 13.2955C134.727 12.75 136.034 12.4773 137.659 12.4773C139.773 12.4773 141.659 13.0114 143.318 14.0795C144.977 15.1477 146.278 16.6875 147.222 18.6989C148.176 20.7102 148.653 23.1307 148.653 25.9602C148.653 28.7898 148.182 31.2159 147.239 33.2386C146.295 35.25 145 36.8011 143.352 37.892C141.705 38.9716 139.824 39.5114 137.71 39.5114C136.119 39.5114 134.818 39.2443 133.807 38.7102C132.807 38.1761 132.023 37.5511 131.455 36.8352C130.886 36.1193 130.449 35.483 130.142 34.9261H129.835V48.8182H124.739ZM129.733 25.9091C129.733 27.75 130 29.3636 130.534 30.75C131.068 32.1364 131.841 33.2216 132.852 34.0057C133.864 34.7784 135.102 35.1648 136.568 35.1648C138.091 35.1648 139.364 34.7614 140.386 33.9545C141.409 33.1364 142.182 32.0284 142.705 30.6307C143.239 29.233 143.506 27.6591 143.506 25.9091C143.506 24.1818 143.244 22.6307 142.722 21.2557C142.21 19.8807 141.438 18.7955 140.403 18C139.381 17.2045 138.102 16.8068 136.568 16.8068C135.091 16.8068 133.841 17.1875 132.818 17.9489C131.807 18.7102 131.04 19.7727 130.517 21.1364C129.994 22.5 129.733 24.0909 129.733 25.9091ZM154.364 39V12.8182H159.46V39H154.364ZM156.938 8.77841C156.051 8.77841 155.29 8.48295 154.653 7.89204C154.028 7.28977 153.716 6.57386 153.716 5.74432C153.716 4.90341 154.028 4.1875 154.653 3.59659C155.29 2.99432 156.051 2.69318 156.938 2.69318C157.824 2.69318 158.58 2.99432 159.205 3.59659C159.841 4.1875 160.159 4.90341 160.159 5.74432C160.159 6.57386 159.841 7.28977 159.205 7.89204C158.58 8.48295 157.824 8.77841 156.938 8.77841ZM171.413 4.09091V39H166.317V4.09091H171.413ZM189.298 39.5284C186.844 39.5284 184.702 38.9659 182.872 37.8409C181.043 36.7159 179.622 35.142 178.611 33.1193C177.599 31.0966 177.094 28.733 177.094 26.0284C177.094 23.3125 177.599 20.9375 178.611 18.9034C179.622 16.8693 181.043 15.2898 182.872 14.1648C184.702 13.0398 186.844 12.4773 189.298 12.4773C191.753 12.4773 193.895 13.0398 195.724 14.1648C197.554 15.2898 198.974 16.8693 199.986 18.9034C200.997 20.9375 201.503 23.3125 201.503 26.0284C201.503 28.733 200.997 31.0966 199.986 33.1193C198.974 35.142 197.554 36.7159 195.724 37.8409C193.895 38.9659 191.753 39.5284 189.298 39.5284ZM189.315 35.25C190.906 35.25 192.224 34.8295 193.27 33.9886C194.315 33.1477 195.088 32.0284 195.588 30.6307C196.099 29.233 196.355 27.6932 196.355 26.0114C196.355 24.3409 196.099 22.8068 195.588 21.4091C195.088 20 194.315 18.8693 193.27 18.017C192.224 17.1648 190.906 16.7386 189.315 16.7386C187.713 16.7386 186.384 17.1648 185.327 18.017C184.281 18.8693 183.503 20 182.991 21.4091C182.491 22.8068 182.241 24.3409 182.241 26.0114C182.241 27.6932 182.491 29.233 182.991 30.6307C183.503 32.0284 184.281 33.1477 185.327 33.9886C186.384 34.8295 187.713 35.25 189.315 35.25ZM219.413 12.8182V16.9091H205.112V12.8182H219.413ZM208.947 6.54545H214.044V31.3125C214.044 32.3011 214.192 33.0455 214.487 33.5455C214.783 34.0341 215.163 34.3693 215.629 34.5511C216.107 34.7216 216.624 34.8068 217.18 34.8068C217.589 34.8068 217.947 34.7784 218.254 34.7216C218.561 34.6648 218.8 34.6193 218.97 34.5852L219.891 38.7955C219.595 38.9091 219.175 39.0227 218.629 39.1364C218.084 39.2614 217.402 39.3295 216.584 39.3409C215.243 39.3636 213.993 39.125 212.834 38.625C211.675 38.125 210.737 37.3523 210.021 36.3068C209.305 35.2614 208.947 33.9489 208.947 32.3693V6.54545Z" fill="#4A4459"/>
<path d="M7 40.25C6.46875 40.25 6.02344 40.0703 5.66406 39.7109C5.30469 39.3516 5.125 38.9062 5.125 38.375V8.375C5.125 7.84375 5.30469 7.39844 5.66406 7.03906C6.02344 6.67969 6.46875 6.5 7 6.5H10.75V2.75H18.25V6.5H22C22.5313 6.5 22.9766 6.67969 23.3359 7.03906C23.6953 7.39844 23.875 7.84375 23.875 8.375V17.75C23.2188 17.75 22.5781 17.7969 21.9531 17.8906C21.3281 17.9844 20.7188 18.125 20.125 18.3125V10.25H8.875V36.5H12.0625C12.4063 37.2187 12.7969 37.8906 13.2344 38.5156C13.6719 39.1406 14.1719 39.7187 14.7344 40.25H7ZM22 40.25L21.4375 37.4375C21.0625 37.2812 20.7109 37.1094 20.3828 36.9219C20.0547 36.7344 19.7344 36.5156 19.4219 36.2656L16.7031 37.2031L14.8281 33.9687L16.9375 32.0937C16.875 31.625 16.8438 31.2266 16.8438 30.8984C16.8438 30.5703 16.875 30.1719 16.9375 29.7031L14.8281 27.8281L16.7031 24.5937L19.4219 25.5312C19.7344 25.2812 20.0547 25.0547 20.3828 24.8516C20.7109 24.6484 21.0625 24.4687 21.4375 24.3125L22 21.5H25.75L26.3125 24.3125C26.6875 24.4687 27.0391 24.6406 27.3672 24.8281C27.6953 25.0156 28.0156 25.2344 28.3281 25.4844L31.0469 24.5469L32.9219 27.7812L30.8125 29.6562C30.875 30.125 30.9063 30.5234 30.9063 30.8516C30.9063 31.1797 30.875 31.5781 30.8125 32.0469L32.9219 33.9219L31.0469 37.1562L28.3281 36.2656C28.0156 36.5156 27.6953 36.7344 27.3672 36.9219C27.0391 37.1094 26.6875 37.2812 26.3125 37.4375L25.75 40.25H22ZM23.875 34.625C24.9063 34.625 25.7891 34.2578 26.5234 33.5234C27.2578 32.7891 27.625 31.9062 27.625 30.875C27.625 29.8437 27.2578 28.9609 26.5234 28.2266C25.7891 27.4922 24.9063 27.125 23.875 27.125C22.8438 27.125 21.9609 27.4922 21.2266 28.2266C20.4922 28.9609 20.125 29.8437 20.125 30.875C20.125 31.9062 20.4922 32.7891 21.2266 33.5234C21.9609 34.2578 22.8438 34.625 23.875 34.625Z" fill="#28F44A"/>
</g>
<defs>
<clipPath id="clip0_7_48">
<rect width="222" height="51" fill="white"/>
</clipPath>
</defs>
</svg>
